<svg width="1162" height="50" viewBox="0 0 1162 50" fill="none" xmlns="http://www.w3.org/2000/svg">
<g clip-path="url(#clip0_46_177)">
<path d="M45.1318 17.8398C45.9912 16.9023 46.5156 15.6553 46.5156 14.2871C46.5156 11.3838 44.1514 9.02148 41.2441 9.02148C38.3369 9.02148 35.9727 11.3838 35.9727 14.2871C35.9727 16.7842 37.7217 18.8789 40.0596 19.417L39.9873 19.4893L34.6973 24.7754H28.5098C27.0869 24.7754 25.9297 25.9316 25.9297 27.3535C25.9297 27.7139 26.0039 28.0566 26.1387 28.3691H23.8574C23.9912 28.0576 24.0664 27.7139 24.0664 27.3535C24.0664 25.9326 22.9092 24.7754 21.4863 24.7754H15.2988L10.0088 19.4893L9.9375 19.418C12.2773 18.8799 14.0273 16.7852 14.0273 14.2881C14.0273 11.3848 11.6611 9.02246 8.75293 9.02246C5.84668 9.02246 3.48145 11.3848 3.48145 14.2881C3.48145 15.6562 4.00684 16.9033 4.86523 17.8408C3.54785 18.3604 2.61328 19.6445 2.61328 21.1426V35.4541C2.61328 37.043 3.90723 38.3359 5.49805 38.3359H12.5215V47.1191C12.5215 48.708 13.8154 50.001 15.4062 50.001C16.9971 50.001 18.291 48.708 18.291 47.1191V35.4531C18.291 34.9775 18.1748 34.5293 17.9697 34.1338H24.2188V46.0547H22.9023C21.8125 46.0547 20.9268 46.9395 20.9268 48.0264V49.2188C20.9268 49.6504 21.2764 50 21.708 50H28.2939C28.7256 50 29.0752 49.6504 29.0752 49.2188V48.0254C29.0752 46.9385 28.1885 46.0537 27.0996 46.0537H25.7812V34.1328H32.0264C31.8213 34.5283 31.7051 34.9775 31.7051 35.4521V47.1172C31.7051 48.7061 32.999 49.999 34.5898 49.999C36.1807 49.999 37.4746 48.7061 37.4746 47.1172V38.334H44.498C46.0889 38.334 47.3828 37.041 47.3828 35.4521V21.1416C47.3838 19.6426 46.4492 18.3594 45.1318 17.8398ZM27.5117 48.0254V48.4375H22.4883V48.0254C22.4883 47.7998 22.6738 47.6162 22.9014 47.6162H27.0977C27.3262 47.6162 27.5117 47.7998 27.5117 48.0254ZM37.5361 14.2871C37.5361 12.2451 39.2002 10.584 41.2451 10.584C43.29 10.584 44.9541 12.2451 44.9541 14.2871C44.9541 16.3291 43.29 17.9902 41.2451 17.9902C39.2002 17.9902 37.5361 16.3291 37.5361 14.2871ZM27.4941 27.3525C27.4941 26.793 27.9502 26.3369 28.5117 26.3369H35.0225C35.2295 26.3369 35.4277 26.2549 35.5742 26.1084L41.0937 20.5938C41.834 19.8535 42.5332 19.1543 43.8311 19.1543C44.9287 19.1543 45.8213 20.0459 45.8213 21.1416V32.5713H40.5986V26.1719L42.4453 24.3271C42.5179 24.2547 42.5756 24.1687 42.6149 24.074C42.6543 23.9792 42.6746 23.8777 42.6747 23.7751C42.6748 23.6725 42.6547 23.5709 42.6155 23.4762C42.5763 23.3814 42.5188 23.2952 42.4463 23.2227C42.3739 23.15 42.2878 23.0924 42.1931 23.053C42.0984 23.0137 41.9968 22.9934 41.8942 22.9933C41.7917 22.9932 41.6901 23.0133 41.5953 23.0525C41.5005 23.0917 41.4144 23.1492 41.3418 23.2217L36.5557 28.002C36.3066 28.2529 36.0234 28.3691 35.666 28.3691H28.5127C27.9502 28.3682 27.4941 27.9131 27.4941 27.3525ZM36.4463 32.5703V29.8242C36.9014 29.6963 37.3135 29.4531 37.6611 29.1045L39.0361 27.7314V32.5703H36.4463ZM10.9639 32.5703V27.7314L12.3369 29.1025C12.6855 29.4531 13.0977 29.6963 13.5537 29.8242V32.5703H10.9639ZM15.1162 29.9307H34.8848V32.5703H15.1162V29.9307ZM8.75488 10.584C10.8018 10.584 12.4668 12.2451 12.4668 14.2871C12.4668 16.3291 10.8018 17.9902 8.75488 17.9902C6.70996 17.9902 5.0459 16.3291 5.0459 14.2871C5.0459 12.2451 6.70996 10.584 8.75488 10.584ZM6.16894 19.1543C7.46582 19.1543 8.16504 19.8535 8.90527 20.5938L14.4248 26.1094C14.5713 26.2559 14.7695 26.3379 14.9766 26.3379H21.4873C22.0488 26.3379 22.5049 26.793 22.5049 27.3535C22.5049 27.9131 22.0488 28.3691 21.4873 28.3691H14.334C13.9756 28.3691 13.6934 28.252 13.4424 28L8.6582 23.2217C8.35352 22.917 7.8584 22.917 7.55371 23.2227C7.24902 23.5283 7.24902 24.0225 7.55469 24.3271L9.40137 26.1719V32.5713H4.17871V21.1416C4.17871 20.0459 5.07129 19.1543 6.16894 19.1543ZM16.7324 35.4531V47.1182C16.7324 47.8457 16.1387 48.4375 15.4102 48.4375C14.6816 48.4375 14.0879 47.8457 14.0879 47.1182V37.5537C14.0879 37.1221 13.7383 36.7725 13.3066 36.7725H5.50098C4.77148 36.7725 4.17871 36.1807 4.17871 35.4531V34.1338H15.4102C16.1396 34.1328 16.7324 34.7246 16.7324 35.4531ZM45.8213 35.4531C45.8213 36.1807 45.2275 36.7725 44.499 36.7725H36.6943C36.2627 36.7725 35.9131 37.1221 35.9131 37.5537V47.1182C35.9131 47.8457 35.3193 48.4375 34.5908 48.4375C33.8623 48.4375 33.2686 47.8457 33.2686 47.1182V35.4531C33.2686 34.7256 33.8623 34.1338 34.5908 34.1338H45.8223V35.4531H45.8213ZM16.7539 14.1523H17.2666V16.0869C17.2667 16.2341 17.3083 16.3783 17.3867 16.5029C17.4652 16.6275 17.5772 16.7273 17.71 16.791C17.8174 16.8428 17.9326 16.8682 18.0479 16.8682C18.2227 16.8682 18.3955 16.8096 18.5371 16.6963L21.707 14.1523H25.6201C26.8105 14.1523 27.7793 13.1846 27.7793 11.9951V11.3701H28.292L31.4619 13.9141C31.6007 14.0253 31.7733 14.0859 31.9512 14.0859C32.1583 14.0857 32.3569 14.0033 32.5033 13.8568C32.6498 13.7104 32.7322 13.5118 32.7324 13.3047V11.3701H33.248C34.4365 11.3701 35.4043 10.4033 35.4043 9.21582V2.15723C35.4043 0.967773 34.4375 0 33.248 0H24.3789C23.1885 0 22.2197 0.967773 22.2197 2.15723V2.78223H16.7539C15.5635 2.78223 14.5947 3.75 14.5947 4.93945V11.9951C14.5957 13.1846 15.5635 14.1523 16.7539 14.1523ZM23.7832 2.15723C23.7832 1.83496 24.0566 1.5625 24.3799 1.5625H33.249C33.5703 1.5625 33.8428 1.83496 33.8428 2.15723V9.21582C33.8428 9.54199 33.5762 9.80762 33.249 9.80762H31.9521C31.5205 9.80762 31.1709 10.1572 31.1709 10.5889V11.6758L29.0566 9.97949C28.9179 9.86821 28.7453 9.80758 28.5674 9.80762H27.7803V4.93945C27.7803 3.75 26.8115 2.78223 25.6211 2.78223H23.7832V2.15723ZM16.1582 4.93945C16.1582 4.61133 16.4258 4.34473 16.7549 4.34473H25.6211C25.9502 4.34473 26.2178 4.61133 26.2178 4.93945V11.9951C26.2178 12.3174 25.9443 12.5898 25.6211 12.5898H21.4326C21.2549 12.5898 21.082 12.6504 20.9434 12.7617L18.8291 14.458V13.3711C18.8291 12.9395 18.4795 12.5898 18.0479 12.5898H16.7539C16.4248 12.5898 16.1572 12.3232 16.1572 11.9951V4.93945H16.1582ZM17.4971 9.72754C17.4971 9.2959 17.8467 8.94629 18.2783 8.94629H24.0957C24.5273 8.94629 24.877 9.2959 24.877 9.72754C24.877 10.1592 24.5273 10.5088 24.0957 10.5088H18.2783C17.8477 10.5088 17.4971 10.1592 17.4971 9.72754ZM19.4795 7.20605C19.4795 6.77441 19.8291 6.4248 20.2607 6.4248H24.0967C24.5283 6.4248 24.8779 6.77441 24.8779 7.20605C24.8779 7.6377 24.5283 7.9873 24.0967 7.9873H20.2607C19.8291 7.9873 19.4795 7.6377 19.4795 7.20605ZM17.498 7.20605C17.498 6.77441 17.8477 6.4248 18.2793 6.4248H18.2803C18.7119 6.4248 19.0615 6.77441 19.0615 7.20605C19.0615 7.6377 18.7119 7.9873 18.2803 7.9873C17.8486 7.9873 17.498 7.6377 17.498 7.20605Z" fill="black"/>
</g>
<path d="M362.079 18.0713V22.8235H346.553L343.779 20.4475L346.553 18.0713H362.079ZM362.079 26.7438V31.496H346.553L343.779 29.1199L346.553 26.7438H362.079ZM362.079 35.4163V40.1685H346.553L343.779 37.7924L346.553 35.4163H362.079Z" fill="#F1B806"/>
<path d="M364.476 0.169922H335.524C333.971 0.169922 332.708 1.43311 332.708 2.98574V47.0146C332.708 48.5673 333.971 49.8305 335.524 49.8305H364.476C366.029 49.8305 367.292 48.5673 367.292 47.0146V2.98574C367.292 1.43311 366.029 0.169922 364.476 0.169922ZM365.756 47.0146C365.756 47.7203 365.182 48.2945 364.476 48.2945H335.524C334.818 48.2945 334.244 47.7203 334.244 47.0146V2.98574C334.244 2.28008 334.818 1.70586 335.524 1.70586H364.476C365.182 1.70586 365.756 2.28008 365.756 2.98574V47.0146Z" fill="black"/>
<path d="M341.372 5.3043H339.46C339.256 5.30432 339.061 5.38524 338.917 5.52926C338.773 5.67327 338.692 5.8686 338.692 6.07227V12.3116C338.692 12.5153 338.773 12.7106 338.917 12.8547C339.061 12.9987 339.256 13.0796 339.46 13.0796C339.663 13.0796 339.859 12.9987 340.003 12.8547C340.147 12.7106 340.228 12.5153 340.228 12.3116V9.96006H341.372C342.655 9.96006 343.7 8.91592 343.7 7.63223C343.7 6.34854 342.655 5.3043 341.372 5.3043ZM341.372 8.42402H340.228V6.84014H341.372C341.808 6.84014 342.164 7.19541 342.164 7.63213C342.164 8.06885 341.808 8.42402 341.372 8.42402ZM350.001 13.0795C350.205 13.0795 350.4 12.9985 350.544 12.8545C350.689 12.7105 350.769 12.5152 350.769 12.3115V10.4414H352.705V12.3115C352.705 12.5152 352.786 12.7105 352.93 12.8546C353.074 12.9986 353.27 13.0795 353.473 13.0795C353.677 13.0795 353.872 12.9986 354.016 12.8546C354.16 12.7105 354.241 12.5152 354.241 12.3115V7.8083C354.241 6.42764 353.118 5.3042 351.737 5.3042C350.357 5.3042 349.234 6.42764 349.234 7.8083V12.3115C349.234 12.5152 349.315 12.7105 349.459 12.8545C349.603 12.9985 349.798 13.0795 350.001 13.0795ZM351.737 6.84014C352.271 6.84014 352.705 7.27432 352.705 7.8083V8.90547H350.77V7.8083C350.769 7.27441 351.203 6.84014 351.737 6.84014ZM360.54 5.3043C360.337 5.30432 360.141 5.38524 359.997 5.52926C359.853 5.67327 359.772 5.8686 359.772 6.07227V9.85527L356.847 5.63486C356.754 5.50041 356.62 5.39924 356.465 5.34611C356.311 5.29297 356.143 5.29065 355.987 5.33947C355.831 5.38829 355.694 5.48571 355.597 5.61753C355.5 5.74934 355.448 5.90866 355.448 6.07227V12.3116C355.448 12.5153 355.529 12.7106 355.673 12.8547C355.817 12.9987 356.012 13.0796 356.216 13.0796C356.42 13.0796 356.615 12.9987 356.759 12.8547C356.903 12.7106 356.984 12.5153 356.984 12.3116V8.52852L359.909 12.7489C360.002 12.8834 360.136 12.9847 360.291 13.0378C360.446 13.091 360.613 13.0934 360.77 13.0445C360.926 12.9957 361.062 12.8983 361.159 12.7664C361.256 12.6345 361.308 12.4752 361.308 12.3115V6.07217C361.308 5.97132 361.288 5.87146 361.25 5.77829C361.211 5.68513 361.155 5.60047 361.083 5.52917C361.012 5.45786 360.927 5.4013 360.834 5.36272C360.741 5.32414 360.641 5.30428 360.54 5.3043ZM348.766 12.3115C348.766 12.1078 348.685 11.9125 348.541 11.7685C348.397 11.6245 348.201 11.5436 347.998 11.5436H345.703V6.07217C345.703 5.86849 345.622 5.67315 345.478 5.52913C345.334 5.38511 345.139 5.3042 344.935 5.3042C344.732 5.3042 344.536 5.38511 344.392 5.52913C344.248 5.67315 344.167 5.86849 344.167 6.07217V12.3115C344.167 12.5152 344.248 12.7105 344.392 12.8546C344.536 12.9986 344.732 13.0795 344.935 13.0795H347.998C348.201 13.0795 348.397 12.9985 348.541 12.8545C348.685 12.7105 348.766 12.5152 348.766 12.3115ZM340.72 18.6601L338.773 20.6062L338.464 20.2972C338.393 20.2248 338.309 20.1672 338.215 20.1278C338.122 20.0883 338.021 20.0677 337.92 20.0673C337.818 20.0668 337.718 20.0864 337.624 20.125C337.53 20.1636 337.445 20.2204 337.373 20.2922C337.302 20.3639 337.245 20.4491 337.206 20.5429C337.168 20.6367 337.148 20.7372 337.148 20.8386C337.149 20.94 337.169 21.0404 337.209 21.1338C337.248 21.2272 337.306 21.3119 337.378 21.383L338.23 22.2352C338.531 22.5363 339.018 22.5338 339.316 22.2352L341.806 19.7458C341.877 19.6745 341.934 19.5899 341.972 19.4967C342.011 19.4035 342.031 19.3037 342.031 19.2028C342.031 19.102 342.011 19.0021 341.972 18.909C341.934 18.8158 341.877 18.7311 341.806 18.6599C341.734 18.5886 341.65 18.532 341.556 18.4934C341.463 18.4548 341.363 18.435 341.263 18.435C341.162 18.435 341.062 18.4549 340.969 18.4935C340.876 18.5321 340.791 18.5887 340.72 18.6601ZM354.763 19.6798H347.482C347.28 19.683 347.088 19.7653 346.947 19.909C346.805 20.0527 346.726 20.2462 346.726 20.4478C346.726 20.6493 346.805 20.8428 346.947 20.9865C347.088 21.1302 347.28 21.2125 347.482 21.2157H354.763C354.964 21.2125 355.156 21.1302 355.298 20.9865C355.439 20.8428 355.519 20.6493 355.519 20.4478C355.519 20.2462 355.439 20.0527 355.298 19.909C355.156 19.7653 354.964 19.683 354.763 19.6798ZM340.72 27.3325L338.773 29.2786L338.464 28.9696C338.393 28.8973 338.309 28.8397 338.215 28.8002C338.122 28.7608 338.021 28.7402 337.92 28.7397C337.818 28.7393 337.718 28.7589 337.624 28.7975C337.53 28.8361 337.445 28.8929 337.373 28.9646C337.302 29.0363 337.245 29.1215 337.206 29.2153C337.168 29.3091 337.148 29.4096 337.148 29.5111C337.149 29.6125 337.169 29.7128 337.209 29.8063C337.248 29.8997 337.306 29.9844 337.378 30.0555L338.23 30.9076C338.531 31.2088 339.018 31.2062 339.316 30.9076L341.806 28.4184C341.877 28.3471 341.934 28.2624 341.972 28.1693C342.011 28.0761 342.031 27.9762 342.031 27.8754C342.031 27.7745 342.011 27.6747 341.972 27.5815C341.934 27.4883 341.877 27.4037 341.806 27.3324C341.734 27.2611 341.65 27.2045 341.556 27.166C341.463 27.1274 341.363 27.1075 341.263 27.1075C341.162 27.1075 341.062 27.1274 340.969 27.166C340.876 27.2046 340.791 27.2612 340.72 27.3325ZM354.763 28.3521H347.482C347.28 28.3554 347.088 28.4377 346.947 28.5814C346.805 28.725 346.726 28.9185 346.726 29.1201C346.726 29.3217 346.805 29.5152 346.947 29.6589C347.088 29.8025 347.28 29.8849 347.482 29.8881H354.763C354.964 29.8849 355.156 29.8025 355.298 29.6589C355.439 29.5152 355.519 29.3217 355.519 29.1201C355.519 28.9185 355.439 28.725 355.298 28.5814C355.156 28.4377 354.964 28.3554 354.763 28.3521ZM340.72 36.0049L338.773 37.951L338.464 37.642C338.393 37.5696 338.309 37.512 338.215 37.4726C338.122 37.4331 338.021 37.4126 337.92 37.4121C337.818 37.4116 337.718 37.4313 337.624 37.4699C337.53 37.5085 337.445 37.5653 337.373 37.637C337.302 37.7087 337.245 37.7939 337.206 37.8877C337.168 37.9815 337.148 38.082 337.148 38.1834C337.149 38.2849 337.169 38.3852 337.209 38.4786C337.248 38.5721 337.306 38.6568 337.378 38.7278L338.23 39.58C338.531 39.8812 339.018 39.8786 339.316 39.58L341.806 37.0906C341.877 37.0193 341.934 36.9347 341.972 36.8415C342.011 36.7484 342.031 36.6485 342.031 36.5477C342.031 36.4468 342.011 36.3469 341.972 36.2538C341.934 36.1606 341.877 36.076 341.806 36.0047C341.734 35.9334 341.65 35.8768 341.556 35.8382C341.463 35.7997 341.363 35.7798 341.263 35.7798C341.162 35.7799 341.062 35.7997 340.969 35.8384C340.876 35.877 340.791 35.9336 340.72 36.0049ZM354.763 37.0245H347.482C347.28 37.0277 347.088 37.1101 346.947 37.2537C346.805 37.3974 346.726 37.5909 346.726 37.7925C346.726 37.9941 346.805 38.1876 346.947 38.3312C347.088 38.4749 347.28 38.5572 347.482 38.5605H354.763C354.964 38.5572 355.156 38.4749 355.298 38.3312C355.439 38.1876 355.519 37.9941 355.519 37.7925C355.519 37.5909 355.439 37.3974 355.298 37.2537C355.156 37.1101 354.964 37.0277 354.763 37.0245Z" fill="black"/>
<g clip-path="url(#clip1_46_177)">
<path d="M636.239 13.8918H627.831L626.03 10.9943C625.422 10.0168 624.371 9.4332 623.219 9.4332H619.532V6.38418H620.078C621.079 6.38418 621.893 5.57012 621.893 4.56943V1.81475C621.893 0.814063 621.079 0 620.078 0H611.922C610.921 0 610.107 0.814063 610.107 1.81475V4.56943C610.107 5.57012 610.921 6.38418 611.922 6.38418H612.468V9.43311H608.781C607.629 9.43311 606.578 10.0167 605.97 10.9942L604.169 13.8917H595.761C593.251 13.8917 591.208 15.9325 591.208 18.4409V45.4483C591.208 47.9581 593.25 49.9999 595.76 49.9999H636.24C638.75 49.9999 640.792 47.9581 640.792 45.4483V18.443C640.792 18.4424 640.792 18.4418 640.792 18.4411V18.441C640.792 15.9325 638.749 13.8918 636.239 13.8918ZM611.921 4.91934C611.829 4.91923 611.74 4.88233 611.674 4.81673C611.609 4.75113 611.572 4.66219 611.572 4.56943V1.81475C611.572 1.72198 611.609 1.63304 611.674 1.56744C611.74 1.50185 611.829 1.46495 611.922 1.46484H620.078C620.171 1.46495 620.26 1.50185 620.326 1.56744C620.391 1.63304 620.428 1.72198 620.428 1.81475V4.56943C620.428 4.6622 620.391 4.75114 620.326 4.81674C620.26 4.88233 620.171 4.91923 620.078 4.91934H611.921ZM618.067 6.38418V9.43311H613.933V6.38418H618.067ZM592.673 18.4431V18.441C592.673 16.7402 594.058 15.3566 595.761 15.3566H607.374C607.568 15.3566 607.754 15.2795 607.892 15.1421C608.029 15.0048 608.106 14.8185 608.106 14.6242C608.106 14.43 608.029 14.2437 607.892 14.1063C607.754 13.969 607.568 13.8918 607.374 13.8918H605.894L607.214 11.7679C607.553 11.2231 608.139 10.898 608.781 10.898H623.219C623.861 10.898 624.447 11.2232 624.786 11.7679L626.106 13.8919H610.564C610.37 13.8919 610.183 13.9691 610.046 14.1064C609.909 14.2438 609.831 14.4301 609.831 14.6243C609.831 14.8186 609.909 15.0049 610.046 15.1422C610.183 15.2796 610.37 15.3567 610.564 15.3567H636.238C637.941 15.3567 639.327 16.7404 639.327 18.4411V23.3046H625.179C622.877 20.8648 619.613 19.3393 616 19.3393C612.387 19.3393 609.123 20.8648 606.821 23.3046H592.673V18.4431ZM627.154 31.9457C627.154 38.0893 622.15 43.0874 616 43.0874C609.85 43.0874 604.846 38.0893 604.846 31.9457C604.846 25.8021 609.849 20.804 616 20.804C622.15 20.804 627.154 25.8021 627.154 31.9457ZM639.327 45.4483C639.327 47.1504 637.942 48.5352 636.24 48.5352H595.76C594.058 48.5352 592.673 47.1504 592.673 45.4484V24.7693H605.631C604.213 26.8075 603.381 29.2812 603.381 31.9457C603.381 38.897 609.042 44.5522 616 44.5522C622.958 44.5522 628.619 38.897 628.619 31.9457C628.619 29.2812 627.787 26.8075 626.369 24.7693H639.327V45.4483Z" fill="black"/>
<path d="M616 23.1188C611.128 23.1188 607.165 27.0784 607.165 31.9455C607.165 36.8126 611.128 40.7722 616 40.7722C617.664 40.7722 619.285 40.3075 620.688 39.4283C620.77 39.3773 620.84 39.3107 620.896 39.2323C620.952 39.1539 620.992 39.0653 621.013 38.9716C621.035 38.8779 621.038 38.7808 621.022 38.686C621.006 38.5911 620.971 38.5004 620.92 38.4188C620.817 38.2542 620.653 38.1374 620.463 38.0939C620.274 38.0504 620.075 38.0839 619.911 38.187C618.741 38.9199 617.388 39.3073 616 39.3073C611.936 39.3073 608.629 36.0048 608.629 31.9455C608.629 27.8862 611.936 24.5837 616 24.5837C620.064 24.5837 623.371 27.8861 623.371 31.9455C623.371 33.3723 622.962 34.7561 622.188 35.9471C622.134 36.0277 622.097 36.1182 622.079 36.2133C622.06 36.3084 622.061 36.4062 622.08 36.5011C622.1 36.596 622.138 36.686 622.193 36.766C622.247 36.846 622.317 36.9144 622.399 36.9672C622.48 37.02 622.571 37.0561 622.666 37.0735C622.761 37.0909 622.859 37.0892 622.954 37.0685C623.048 37.0479 623.138 37.0087 623.217 36.9531C623.297 36.8976 623.364 36.8269 623.416 36.745C624.345 35.3159 624.835 33.6562 624.835 31.9455C624.835 27.0785 620.872 23.1188 616 23.1188ZM618.564 2.45947H613.2C613.006 2.45947 612.82 2.53664 612.682 2.67399C612.545 2.81135 612.468 2.99764 612.468 3.19189C612.468 3.38614 612.545 3.57244 612.682 3.70979C612.82 3.84715 613.006 3.92432 613.2 3.92432H618.564C618.758 3.92432 618.944 3.84715 619.081 3.70979C619.219 3.57244 619.296 3.38614 619.296 3.19189C619.296 2.99764 619.219 2.81135 619.081 2.67399C618.944 2.53664 618.758 2.45947 618.564 2.45947ZM601.665 17.5881H595.728C595.534 17.5881 595.348 17.6653 595.21 17.8026C595.073 17.94 594.996 18.1263 594.996 18.3205C594.996 18.5148 595.073 18.7011 595.21 18.8384C595.348 18.9758 595.534 19.0529 595.728 19.0529H601.665C601.859 19.0529 602.045 18.9758 602.183 18.8384C602.32 18.7011 602.397 18.5148 602.397 18.3205C602.397 18.1263 602.32 17.94 602.183 17.8026C602.045 17.6653 601.859 17.5881 601.665 17.5881ZM636.16 17.5881H633.192C632.998 17.5881 632.812 17.6653 632.674 17.8026C632.537 17.94 632.46 18.1263 632.46 18.3205C632.46 18.5148 632.537 18.7011 632.674 18.8384C632.812 18.9758 632.998 19.0529 633.192 19.0529H636.16C636.355 19.0529 636.541 18.9758 636.678 18.8384C636.816 18.7011 636.893 18.5148 636.893 18.3205C636.893 18.1263 636.816 17.94 636.678 17.8026C636.541 17.6653 636.355 17.5881 636.16 17.5881ZM596.512 42.8582C595.347 42.8582 594.399 43.8055 594.399 44.9699C594.399 46.1344 595.347 47.0816 596.512 47.0816C597.678 47.0816 598.625 46.1344 598.625 44.9699C598.625 43.8055 597.677 42.8582 596.512 42.8582ZM596.512 45.6167C596.155 45.6167 595.864 45.3266 595.864 44.9698C595.864 44.6131 596.155 44.3229 596.512 44.3229C596.87 44.3229 597.161 44.6131 597.161 44.9698C597.161 45.3266 596.87 45.6167 596.512 45.6167Z" fill="black"/>
</g>
<g clip-path="url(#clip2_46_177)">
<path d="M885.047 4.27539H879.527V3.39844C879.527 1.83105 878.252 0.555664 876.685 0.555664H851.316C849.748 0.555664 848.473 1.83105 848.473 3.39844V4.27637H842.953C840.773 4.27539 839 6.04883 839 8.22852V38.6875C839 40.8672 840.773 42.6406 842.953 42.6406H858.789L856.912 47.8838H853.395C852.964 47.8838 852.614 48.2334 852.614 48.6641C852.614 49.0947 852.964 49.4443 853.395 49.4443H874.606C875.037 49.4443 875.387 49.0947 875.387 48.6641C875.387 48.2334 875.037 47.8838 874.606 47.8838H871.09L869.215 42.6406H885.048C887.228 42.6406 889.001 40.8672 889.001 38.6875V8.22852C889 6.04883 887.227 4.27539 885.047 4.27539ZM885.047 5.83691C886.365 5.83691 887.438 6.91016 887.438 8.22852V33.04H885.756V8.30078C885.756 7.86914 885.406 7.52051 884.976 7.52051H879.527V5.83691H885.047ZM843.809 33.04V9.08105H848.473V24.5967C848.473 26.1641 849.748 27.4395 851.315 27.4395H876.684C878.251 27.4395 879.526 26.1641 879.526 24.5967V9.08105H884.193V33.04H843.809ZM850.034 3.39844C850.034 2.69141 850.609 2.11719 851.315 2.11719H876.684C877.391 2.11719 877.965 2.69238 877.965 3.39844V24.5977C877.965 25.3047 877.39 25.8789 876.684 25.8789H851.316C850.609 25.8789 850.035 25.3037 850.035 24.5977V3.39844H850.034ZM842.953 5.83691H848.473V7.51953H843.028C842.597 7.51953 842.248 7.86914 842.248 8.2998V33.0391H840.562V8.22852C840.562 6.91016 841.635 5.83691 842.953 5.83691ZM869.431 47.8828H858.57L860.447 42.6396H867.556L869.431 47.8828ZM885.047 41.0791H842.953C841.635 41.0791 840.562 40.0059 840.562 38.6875V34.6016H887.438V38.6875C887.438 40.0059 886.365 41.0791 885.047 41.0791ZM867.682 15.7803C868.866 15.7803 869.83 14.8164 869.83 13.6318C869.83 13.4951 869.816 13.3613 869.792 13.2324C869.816 13.1572 869.83 13.0762 869.83 12.9932V9.93555L873.385 9.33594V10.7041C873.198 10.6514 873.001 10.6221 872.798 10.6221C871.613 10.6221 870.649 11.5859 870.649 12.7705C870.649 13.9551 871.613 14.9189 872.798 14.9189C873.982 14.9189 874.946 13.9551 874.946 12.7705C874.946 12.6348 874.933 12.502 874.909 12.373C874.934 12.2979 874.946 12.2178 874.946 12.1338V5.55762C874.946 5.44417 874.921 5.33209 874.874 5.22919C874.826 5.12629 874.756 5.03504 874.67 4.96179C874.583 4.88855 874.481 4.83506 874.372 4.80506C874.263 4.77506 874.148 4.76927 874.036 4.78809L868.921 5.65137C868.739 5.68201 868.574 5.77614 868.455 5.91702C868.336 6.05791 868.27 6.23643 868.271 6.4209V11.5664C868.084 11.5137 867.887 11.4844 867.684 11.4844C866.499 11.4844 865.535 12.4482 865.535 13.6328C865.533 14.8164 866.497 15.7803 867.682 15.7803ZM872.797 13.3555C872.474 13.3555 872.21 13.0918 872.21 12.7686C872.21 12.4453 872.474 12.1816 872.797 12.1816C873.12 12.1816 873.384 12.4453 873.384 12.7686C873.384 13.0918 873.121 13.3555 872.797 13.3555ZM869.83 7.08105L873.385 6.48047V7.75098L869.83 8.35059V7.08105ZM867.682 13.0449C868.005 13.0449 868.269 13.3086 868.269 13.6318C868.269 13.9551 868.005 14.2188 867.682 14.2188C867.358 14.2188 867.095 13.9551 867.095 13.6318C867.095 13.3086 867.358 13.0449 867.682 13.0449ZM854.093 15.7812C854.418 15.9688 854.774 16.0625 855.131 16.0625C855.487 16.0625 855.844 15.9688 856.169 15.7812L862.143 12.332C862.793 11.957 863.181 11.2852 863.181 10.5352C863.181 9.7832 862.793 9.11035 862.143 8.73535L856.169 5.28613C855.52 4.91113 854.743 4.91113 854.093 5.28613C853.442 5.66113 853.055 6.33398 853.055 7.08594V13.9814C853.055 14.7324 853.442 15.4053 854.093 15.7812ZM854.616 7.08496C854.616 6.88672 854.703 6.73535 854.873 6.6377C854.959 6.58789 855.045 6.56348 855.131 6.56348C855.217 6.56348 855.303 6.58789 855.389 6.6377L861.362 10.0869C861.533 10.1855 861.619 10.3359 861.619 10.5342C861.619 10.7305 861.532 10.8809 861.362 10.9795L855.389 14.4287C855.218 14.5273 855.045 14.5273 854.874 14.4287C854.703 14.3301 854.616 14.1797 854.616 13.9805V7.08496ZM853.835 21.7539H856.157V21.9922C856.157 22.668 856.706 23.2188 857.381 23.2188H859.418C860.094 23.2188 860.645 22.6689 860.645 21.9922V21.7539H874.164C874.595 21.7539 874.944 21.4043 874.944 20.9736C874.944 20.543 874.595 20.1934 874.164 20.1934H860.645V19.958C860.645 19.2822 860.095 18.7314 859.418 18.7314H857.381C856.706 18.7314 856.157 19.2812 856.157 19.958V20.1934H853.835C853.403 20.1934 853.055 20.543 853.055 20.9736C853.055 21.4043 853.404 21.7539 853.835 21.7539ZM857.719 20.293H859.083V21.6572H857.719V20.293Z" fill="black"/>
</g>
<path d="M1149.93 7.48692C1149.69 7.24056 1149.4 7.04508 1149.07 6.91179C1148.75 6.77851 1148.41 6.71008 1148.06 6.71046L1145.9 6.70645L1146.19 6.40616C1146.43 6.17464 1146.62 5.89833 1146.75 5.59321C1146.88 5.28809 1146.95 4.96022 1146.95 4.62858C1146.95 4.29695 1146.89 3.96812 1146.76 3.66113C1146.64 3.35415 1146.45 3.0751 1146.22 2.84013C1145.99 2.60517 1145.71 2.41895 1145.4 2.29226C1145.09 2.16558 1144.77 2.10093 1144.43 2.10207C1144.1 2.1032 1143.77 2.1701 1143.47 2.29888C1143.16 2.42767 1142.89 2.61579 1142.65 2.85235L1139.08 6.41094L1136.46 3.78048C1136.23 3.54639 1135.95 3.36064 1135.65 3.23398C1135.34 3.10732 1135.02 3.04227 1134.69 3.04259H1134.68C1134.26 3.04293 1133.83 3.15287 1133.46 3.36194C1133.09 3.571 1132.77 3.87224 1132.55 4.23699C1132.32 4.60174 1132.2 5.01786 1132.18 5.44575C1132.16 5.87364 1132.25 6.29907 1132.44 6.68155L1129.98 6.67696H1129.98C1129.28 6.67696 1128.61 6.95437 1128.12 7.44829C1127.62 7.94222 1127.34 8.6123 1127.34 9.31143L1127.34 12.2182C1127.34 12.2952 1127.35 12.3715 1127.38 12.4427C1127.41 12.5139 1127.45 12.5787 1127.51 12.6332C1127.56 12.6877 1127.63 12.731 1127.7 12.7605C1127.77 12.79 1127.84 12.8052 1127.92 12.8052H1128.79V23.2664C1128.79 23.9661 1129.07 24.637 1129.56 25.1318C1130.06 25.6265 1130.73 25.9049 1131.43 25.9057H1146.61C1147.31 25.9049 1147.98 25.6265 1148.47 25.1318C1148.97 24.637 1149.25 23.9661 1149.25 23.2664V12.8052H1150.11C1150.26 12.8052 1150.41 12.7436 1150.52 12.6339C1150.63 12.5243 1150.69 12.3755 1150.69 12.2203L1150.7 9.35469C1150.7 9.00794 1150.63 8.66431 1150.5 8.3437C1150.37 8.02309 1150.18 7.73188 1149.93 7.48692ZM1143.48 3.68253C1143.61 3.55901 1143.75 3.46126 1143.92 3.39485C1144.08 3.32845 1144.25 3.29469 1144.43 3.29552C1144.6 3.29634 1144.78 3.33172 1144.94 3.39964C1145.1 3.46756 1145.25 3.56669 1145.37 3.69136C1145.49 3.81604 1145.59 3.96383 1145.66 4.12629C1145.72 4.28874 1145.76 4.46269 1145.76 4.63819C1145.76 4.81369 1145.72 4.98731 1145.65 5.14914C1145.59 5.31097 1145.49 5.45784 1145.36 5.58135L1144.27 6.696H1140.46L1143.48 3.68253ZM1133.74 4.60411C1133.86 4.48016 1134.01 4.38191 1134.17 4.31504C1134.34 4.24816 1134.51 4.21398 1134.68 4.21446H1134.69C1134.86 4.21432 1135.04 4.249 1135.2 4.31648C1135.36 4.38397 1135.51 4.48292 1135.63 4.60762L1137.71 6.69132L1133.9 6.65704L1133.74 6.49395C1133.49 6.24286 1133.35 5.90268 1133.35 5.54825C1133.35 5.19382 1133.49 4.85427 1133.74 4.60411ZM1135.88 24.7338H1131.43C1131.04 24.7334 1130.67 24.5786 1130.39 24.3035C1130.12 24.0284 1129.96 23.6555 1129.96 23.2664V12.8052H1135.89L1135.88 24.7338ZM1135.89 11.6333H1128.51L1128.51 9.31358C1128.51 8.92486 1128.67 8.5523 1128.94 8.27766C1129.22 8.00302 1129.59 7.84876 1129.98 7.84874H1129.98L1135.89 7.85967L1135.89 11.6333ZM1141.1 24.7338H1137.06L1137.06 12.8052H1141.11L1141.1 24.7338ZM1141.11 11.6333H1137.06L1137.06 7.86192L1141.11 7.86944L1141.11 11.6333ZM1148.07 23.2664C1148.07 23.6555 1147.92 24.0284 1147.64 24.3035C1147.37 24.5786 1147 24.7334 1146.61 24.7338H1142.28L1142.28 12.8052H1148.07V23.2664ZM1149.52 11.6333H1142.28L1142.29 7.87159L1148.06 7.88233C1148.26 7.88266 1148.45 7.92096 1148.62 7.99502C1148.8 8.06908 1148.96 8.17747 1149.1 8.31398C1149.24 8.4505 1149.34 8.61247 1149.42 8.79065C1149.49 8.96883 1149.53 9.15973 1149.53 9.35245L1149.52 11.6333ZM1155.95 30.3691L1155.64 30.537C1154.61 29.2554 1152.81 28.7507 1151.44 29.4458L1151.42 29.4526L1150.77 29.8059C1150.05 29.1834 1149.15 28.8002 1148.21 28.7096C1147.26 28.619 1146.31 28.8254 1145.48 29.3002L1142.17 31.1038H1137.76C1136.79 31.1026 1135.84 30.8851 1134.98 30.4675L1134.37 30.1756C1132.67 29.3443 1130.76 29.0021 1128.87 29.1867C1126.98 29.3714 1125.18 30.0757 1123.66 31.2218C1123.65 31.2316 1123.64 31.2413 1123.62 31.2523L1122.17 32.5506C1121.63 33.0236 1116.14 35.908 1112.81 37.6151C1112.74 37.6502 1112.68 37.6984 1112.63 37.757C1112.58 37.8156 1112.54 37.8834 1112.52 37.9566C1112.49 38.0299 1112.48 38.107 1112.49 38.1837C1112.5 38.2604 1112.52 38.3352 1112.55 38.4037C1112.59 38.4722 1112.64 38.5331 1112.69 38.583C1112.75 38.6328 1112.82 38.6707 1112.89 38.6943C1112.97 38.718 1113.04 38.727 1113.12 38.7208C1113.2 38.7147 1113.27 38.6935 1113.34 38.6584C1114.8 37.9097 1122.14 34.1389 1122.95 33.4259L1124.39 32.1437C1125.73 31.1335 1127.32 30.5137 1129 30.3526C1130.67 30.1914 1132.35 30.4952 1133.86 31.2304L1134.47 31.5225C1135.49 32.0168 1136.62 32.2742 1137.76 32.2757H1143.61C1144.51 32.2769 1145.37 32.5944 1146.05 33.1718C1146.73 33.7493 1147.19 34.5494 1147.33 35.43L1143 35.2342C1141.46 35.165 1139.92 35.2363 1138.39 35.4471C1138.31 35.4569 1138.24 35.4818 1138.17 35.5204C1138.11 35.5591 1138.05 35.6107 1138 35.6722C1137.95 35.7337 1137.92 35.804 1137.9 35.8789C1137.88 35.9538 1137.87 36.0319 1137.88 36.1087C1137.89 36.1854 1137.92 36.2593 1137.96 36.326C1138 36.3928 1138.05 36.451 1138.11 36.4974C1138.18 36.5439 1138.25 36.5775 1138.32 36.5965C1138.4 36.6154 1138.47 36.6193 1138.55 36.6078C1140.01 36.4067 1141.48 36.3388 1142.95 36.4049L1147.94 36.6311C1148.02 36.6346 1148.1 36.6221 1148.17 36.5943C1148.25 36.5665 1148.32 36.5239 1148.37 36.4691C1148.43 36.4143 1148.48 36.3485 1148.51 36.2756C1148.54 36.2028 1148.55 36.1244 1148.55 36.0451C1148.55 35.9249 1148.55 35.8061 1148.54 35.6879L1149.27 35.3053L1156.5 31.4005C1157.09 31.0853 1157.76 30.9758 1158.41 31.0898C1159.06 31.2037 1159.66 31.5345 1160.1 32.0284L1145.4 42.1208C1143.47 43.0627 1141.28 43.3664 1139.17 42.9881L1130.38 41.3701C1129.43 41.135 1128.43 41.2717 1127.57 41.7523L1118.77 46.784C1118.7 46.822 1118.64 46.8729 1118.59 46.9337C1118.55 46.9946 1118.51 47.0642 1118.49 47.1386C1118.47 47.213 1118.47 47.2908 1118.48 47.3673C1118.49 47.4439 1118.51 47.5178 1118.55 47.5848C1118.59 47.6518 1118.64 47.7106 1118.7 47.7578C1118.76 47.805 1118.83 47.8396 1118.9 47.8597C1118.98 47.8799 1119.06 47.8851 1119.13 47.875C1119.21 47.865 1119.28 47.84 1119.35 47.8014L1128.15 42.7721C1128.75 42.4366 1129.45 42.3432 1130.12 42.5111C1130.13 42.5143 1130.14 42.5169 1130.15 42.5191L1138.96 44.1407C1141.34 44.5661 1143.79 44.22 1145.96 43.1529C1145.98 43.1406 1146 43.1266 1146.03 43.1108L1161.26 32.6531C1161.38 32.5686 1161.47 32.4403 1161.5 32.2943C1161.53 32.1484 1161.51 31.9958 1161.43 31.8679C1160.88 30.9603 1160.01 30.298 1158.99 30.0188C1157.97 29.7396 1156.88 29.8651 1155.95 30.3691ZM1146.05 30.3261L1146.06 30.3183C1146.61 30.0024 1147.23 29.8442 1147.86 29.8615C1148.49 29.8787 1149.11 30.0707 1149.64 30.4159L1146.55 32.0769C1145.94 31.621 1145.23 31.3143 1144.48 31.1812L1146.05 30.3261ZM1148.71 34.2714L1148.3 34.4889C1148.11 33.9209 1147.82 33.392 1147.44 32.9281L1151.97 30.4881C1152.78 30.0808 1153.89 30.3726 1154.58 31.1068L1148.71 34.2714Z" fill="black"/>
<line x1="60" y1="24" x2="315" y2="24" stroke="#F1B806" stroke-width="2"/>
<line x1="375" y1="24" x2="575" y2="24" stroke="#F1B806" stroke-width="2"/>
<line x1="651" y1="24" x2="829" y2="24" stroke="#F1B806" stroke-width="2"/>
<line x1="899" y1="24" x2="1102" y2="24" stroke="#F1B806" stroke-width="2"/>
<defs>
<clipPath id="clip0_46_177">
<rect width="50" height="50" fill="white"/>
</clipPath>
<clipPath id="clip1_46_177">
<rect width="50" height="50" fill="white" transform="translate(591)"/>
</clipPath>
<clipPath id="clip2_46_177">
<rect width="50" height="50" fill="white" transform="translate(839)"/>
</clipPath>
</defs>
</svg>
