<svg width="50" height="36" viewBox="0 0 50 36" fill="none" xmlns="http://www.w3.org/2000/svg">
<path d="M20.7078 35.5123C11.1855 35.337 7.9332 35.1793 5.93413 34.7674C4.58162 34.4937 3.4063 33.8861 2.54452 33.0049C1.87847 32.3379 1.34878 31.3203 0.937837 29.9084C0.585333 28.7321 0.448041 27.7535 0.252308 25.3629C-0.0473208 19.9678 -0.118749 15.5568 0.252308 10.6283C0.558431 7.90655 0.706853 4.67556 2.74025 2.79059C3.70036 1.9084 4.81724 1.34068 6.07142 1.10599C8.0306 0.734005 16.3775 0.439941 25.0185 0.439941C33.6401 0.439941 42.0056 0.734005 43.9666 1.10599C45.5334 1.40005 47.0028 2.28131 47.8655 3.41768C49.7208 6.33604 49.7532 9.96499 49.9415 12.8036C50.0195 14.1561 50.0195 21.836 49.9415 23.1885C49.6484 27.6746 49.4128 29.2618 48.7467 30.9075C48.3349 31.9464 47.9833 32.4947 47.3748 33.1023C46.4204 34.0373 45.2037 34.6592 43.8868 34.8852C35.6466 35.5049 28.6493 35.6394 20.7078 35.5123ZM33.3265 17.4863C28.7421 15.0364 24.3525 12.7646 19.8655 10.413V24.4817C24.5872 21.9149 29.5649 19.5633 33.346 17.4668L33.3265 17.4863Z" fill="#CD201F"/>
</svg>
