<svg width="50" height="50" viewBox="0 0 50 50" fill="none" xmlns="http://www.w3.org/2000/svg">
<path d="M42.6357 7.26603C37.9561 2.58319 31.7336 0.00285711 25.104 0C11.4426 0 0.324998 11.1141 0.319529 24.7748C0.317937 29.1415 1.4589 33.4041 3.62757 37.1614L0.11145 50L13.25 46.5549C16.8699 48.5291 20.9457 49.5694 25.0933 49.571H25.1039H25.104C38.7631 49.571 49.8824 38.455 49.8882 24.7949C49.8905 18.1743 47.3147 11.9492 42.6357 7.26603ZM25.104 45.3865H25.0959C21.3989 45.3845 17.7735 44.392 14.6113 42.5155L13.8587 42.0694L6.06203 44.1136L8.14363 36.5147L7.65331 35.7356C5.59109 32.4566 4.50241 28.6673 4.50396 24.7764C4.50849 13.422 13.749 4.18472 25.1118 4.18472C30.6142 4.18701 35.7859 6.33179 39.6754 10.224C43.5647 14.1162 45.7051 19.2904 45.7034 24.7931C45.6986 36.1479 36.4578 45.3865 25.104 45.3865Z" fill="#E0E0E0"/>
</svg>
