<svg width="26" height="24" viewBox="0 0 26 24" fill="none" xmlns="http://www.w3.org/2000/svg">
<path fill-rule="evenodd" clip-rule="evenodd" d="M6.97948 1.25665C6.52096 0.237193 6.03819 0.216785 5.60195 0.198948C5.24514 0.183642 4.83665 0.184582 4.42882 0.184582C4.02066 0.184582 3.35741 0.337967 2.79652 0.95053C2.2353 1.56309 0.653687 3.04393 0.653687 6.05569C0.653687 9.06777 2.84754 11.9781 3.15333 12.3869C3.45945 12.7951 7.38829 19.1732 13.6105 21.6269C18.7816 23.6661 19.8339 23.2605 20.9564 23.1584C22.0788 23.0564 24.5781 21.6779 25.0883 20.2484C25.5985 18.8192 25.5985 17.5941 25.4454 17.338C25.2924 17.0829 24.8842 16.9299 24.272 16.6238C23.6598 16.3176 20.6502 14.8365 20.089 14.6324C19.5278 14.4283 19.1196 14.3263 18.7115 14.9392C18.3033 15.5514 17.1308 16.9299 16.7737 17.338C16.4165 17.7471 16.0594 17.7981 15.4472 17.492C14.8349 17.185 12.8633 16.5392 10.5244 14.4538C8.7046 12.8314 7.47597 10.8275 7.11883 10.2147C6.76169 9.60246 7.08054 9.27083 7.38764 8.96565C7.66249 8.69141 7.99988 8.25105 8.30599 7.89358C8.61146 7.53612 8.7135 7.28102 8.91758 6.87286C9.12166 6.46405 9.01962 6.10663 8.86656 5.80051C8.7135 5.49439 7.5238 2.46708 6.97948 1.25665Z" fill="white"/>
</svg>
