<svg width="32" height="32" viewBox="0 0 32 32" fill="none" xmlns="http://www.w3.org/2000/svg">
<path fill-rule="evenodd" clip-rule="evenodd" d="M0.375 15.375C0.375 10.1245 0.375 7.49922 1.39681 5.49384C2.29563 3.72981 3.72981 2.29563 5.49384 1.39681C7.49922 0.375 10.1245 0.375 15.375 0.375H16.625C21.8755 0.375 24.5008 0.375 26.5061 1.39681C28.2702 2.29563 29.7044 3.72981 30.6031 5.49384C31.625 7.49922 31.625 10.1245 31.625 15.375V16.625C31.625 21.8755 31.625 24.5008 30.6031 26.5061C29.7044 28.2702 28.2702 29.7044 26.5061 30.6031C24.5008 31.625 21.8755 31.625 16.625 31.625H15.375C10.1245 31.625 7.49922 31.625 5.49384 30.6031C3.72981 29.7044 2.29563 28.2702 1.39681 26.5061C0.375 24.5008 0.375 21.8755 0.375 16.625V15.375ZM15.375 3.5H16.625C19.3019 3.5 21.1214 3.50244 22.528 3.61734C23.8981 3.72928 24.5987 3.93217 25.0875 4.1812C26.2634 4.78042 27.2195 5.73655 27.8187 6.9125C28.0678 7.40125 28.2708 8.10187 28.3827 9.47203C28.4975 10.8786 28.5 12.6981 28.5 15.375V16.625C28.5 19.3019 28.4975 21.1214 28.3827 22.528C28.2708 23.8981 28.0678 24.5987 27.8187 25.0875C27.2195 26.2634 26.2634 27.2195 25.0875 27.8187C24.5987 28.0678 23.8981 28.2708 22.528 28.3827C21.1214 28.4975 19.3019 28.5 16.625 28.5H15.375C12.6981 28.5 10.8786 28.4975 9.47203 28.3827C8.10187 28.2708 7.40125 28.0678 6.9125 27.8187C5.73655 27.2195 4.78042 26.2634 4.1812 25.0875C3.93217 24.5987 3.72928 23.8981 3.61734 22.528C3.50244 21.1214 3.5 19.3019 3.5 16.625V15.375C3.5 12.6981 3.50244 10.8786 3.61734 9.47203C3.72928 8.10187 3.93217 7.40125 4.1812 6.9125C4.78042 5.73655 5.73655 4.78042 6.9125 4.1812C7.40125 3.93217 8.10187 3.72928 9.47203 3.61734C10.8786 3.50244 12.6981 3.5 15.375 3.5Z" fill="white"/>
</svg>
