<svg width="60" height="60" viewBox="0 0 60 60" fill="none" xmlns="http://www.w3.org/2000/svg">
<g clip-path="url(#clip0_46_71)">
<circle cx="30" cy="30" r="30" fill="#F1B806"/>
<path d="M18.75 40.7375L23.2375 36.25H37.5C38.163 36.25 38.7989 35.9866 39.2678 35.5178C39.7366 35.0489 40 34.413 40 33.75V22.5C40 21.837 39.7366 21.2011 39.2678 20.7322C38.7989 20.2634 38.163 20 37.5 20H21.25C20.587 20 19.9511 20.2634 19.4822 20.7322C19.0134 21.2011 18.75 21.837 18.75 22.5V40.7375ZM18.75 42.5H17.5V22.5C17.5 21.5054 17.8951 20.5516 18.5983 19.8483C19.3016 19.1451 20.2554 18.75 21.25 18.75H37.5C38.4946 18.75 39.4484 19.1451 40.1517 19.8483C40.8549 20.5516 41.25 21.5054 41.25 22.5V33.75C41.25 34.7446 40.8549 35.6984 40.1517 36.4017C39.4484 37.1049 38.4946 37.5 37.5 37.5H23.75L18.75 42.5Z" fill="black"/>
</g>
<defs>
<clipPath id="clip0_46_71">
<rect width="60" height="60" fill="white"/>
</clipPath>
</defs>
</svg>
