<svg width="50" height="50" viewBox="0 0 50 50" fill="none" xmlns="http://www.w3.org/2000/svg">
<path d="M42.4333 7.18752C37.8074 2.55844 31.6563 0.00778073 25.1028 0.00488281C11.5982 0.00488281 0.608255 10.9914 0.602827 24.4953C0.601235 28.8119 1.7291 33.0255 3.87287 36.7397L0.397156 49.4309L13.3849 46.0253C16.9633 47.9768 20.9922 49.0052 25.0923 49.0068H25.1027H25.1028C38.6052 49.0068 49.5968 38.0184 49.6025 24.5151C49.6048 17.9705 47.0585 11.8169 42.4333 7.18752ZM25.1028 44.8704H25.0949C21.4403 44.8685 17.8564 43.8873 14.7305 42.0324L13.9866 41.5914L6.27941 43.6121L8.33709 36.1004L7.85241 35.3303C5.81386 32.089 4.73767 28.3432 4.73926 24.4969C4.74371 13.2729 13.8782 4.14165 25.1105 4.14165C30.5499 4.14389 35.662 6.26407 39.507 10.1116C43.3517 13.9591 45.4674 19.0739 45.4658 24.5135C45.461 35.7378 36.3262 44.8704 25.1028 44.8704Z" fill="white"/>
</svg>
